<svg  class="icon icon-search" width="18" height="18" viewBox="0 0 18 18" fill="none" xmlns="http://www.w3.org/2000/svg">
<path d="M14.3537 15.1442L9.64313 10.4334C9.26813 10.7431 8.83687 10.9854 8.34937 11.1604C7.86187 11.3354 7.35756 11.4229 6.83644 11.4229C5.55456 11.4229 4.46969 10.9791 3.58181 10.0914C2.69394 9.20381 2.25 8.11919 2.25 6.83756C2.25 5.55606 2.69381 4.47106 3.58144 3.58256C4.46906 2.69419 5.55369 2.25 6.83531 2.25C8.11681 2.25 9.20181 2.69394 10.0903 3.58181C10.9787 4.46969 11.4229 5.55456 11.4229 6.83644C11.4229 7.37206 11.333 7.88363 11.1532 8.37113C10.9734 8.85863 10.7334 9.28263 10.4334 9.64313L15.144 14.3537L14.3537 15.1442ZM6.83644 10.2981C7.80281 10.2981 8.62131 9.96269 9.29194 9.29194C9.96269 8.62131 10.2981 7.80281 10.2981 6.83644C10.2981 5.87006 9.96269 5.05156 9.29194 4.38094C8.62131 3.71019 7.80281 3.37481 6.83644 3.37481C5.87006 3.37481 5.05156 3.71019 4.38094 4.38094C3.71019 5.05156 3.37481 5.87006 3.37481 6.83644C3.37481 7.80281 3.71019 8.62131 4.38094 9.29194C5.05156 9.96269 5.87006 10.2981 6.83644 10.2981Z" fill="currentColor" fill-rule="evenodd"/>
</svg>

