<svg xmlns="http://www.w3.org/2000/svg" class="icon icon-cart-empty" fill="none" width="12" height="15" viewBox="0 0 12 15"><path d="M1.356 14.25q-.57 0-.962-.394A1.3 1.3 0 0 1 0 12.894V4.356q0-.57.394-.962Q.787 3 1.356 3h1.457v-.187q0-1.165.823-1.99A2.7 2.7 0 0 1 5.625 0Q6.79 0 7.614.824a2.7 2.7 0 0 1 .824 1.989V3h1.456q.57 0 .962.394.394.393.394.962v8.538q0 .57-.394.962a1.3 1.3 0 0 1-.962.394zm0-1.125h8.538a.22.22 0 0 0 .159-.072.22.22 0 0 0 .072-.159V4.356a.22.22 0 0 0-.072-.159.22.22 0 0 0-.159-.072H8.437v1.688q0 .24-.161.4a.54.54 0 0 1-.401.162.54.54 0 0 1-.4-.162.54.54 0 0 1-.162-.4V4.125H3.938v1.688q0 .24-.162.4a.54.54 0 0 1-.401.162.54.54 0 0 1-.4-.162.54.54 0 0 1-.163-.4V4.125H1.357a.22.22 0 0 0-.159.072.22.22 0 0 0-.072.159v8.538q0 .086.072.159a.22.22 0 0 0 .159.072M3.938 3h3.375v-.187q0-.706-.492-1.197a1.63 1.63 0 0 0-1.196-.491q-.706 0-1.196.491a1.63 1.63 0 0 0-.492 1.197z" fill="currentColor" fill-rule="evenodd"/></svg>